<svg width="207" height="76" viewBox="0 0 207 76" fill="none" xmlns="http://www.w3.org/2000/svg">
<g opacity="0.2" filter="url(#filter0_d)">
<path d="M86.1427 49.4881C86.4919 49.4881 86.8412 49.3834 87.1555 49.3135V51.7582C86.5269 52.0027 85.7585 52.1424 84.9902 52.1424C83.5932 52.1424 82.4756 51.5836 81.9168 50.3612C80.4151 51.5836 78.5291 52.3519 76.1193 52.3519C73.3254 52.3519 70.741 50.8153 70.741 47.6371C70.741 43.6907 74.3731 42.5032 77.5862 42.5032C78.9133 42.5032 80.3801 42.6778 81.5676 42.9572V42.3985C81.5676 40.4776 80.1706 39.1505 77.5513 39.1505C75.2812 39.1505 73.3952 39.7093 72.0332 40.3379V37.1947C73.2555 36.7756 75.4558 36.1819 77.9005 36.1819C82.2311 36.1819 84.9902 38.2424 84.9902 42.8874V48.3705C85.0251 49.2087 85.514 49.4881 86.1427 49.4881ZM74.2683 47.3927C74.2683 48.8944 75.5955 49.6628 77.1322 49.6628C78.7736 49.6628 80.3452 49.069 81.5676 47.8467V45.2623C80.6246 45.0876 79.3324 44.8781 78.2497 44.8781C76.3289 44.8781 74.2683 45.4718 74.2683 47.3927Z" fill="black"/>
<path d="M97.0392 36.1469C98.7505 36.1469 100.427 36.531 101.754 37.3343V40.4775C100.636 39.6742 99.0649 39.1853 97.4932 39.1853C94.7691 39.1853 92.045 40.6172 92.045 44.2493C92.045 47.7418 94.6993 49.3134 97.4583 49.3134C99.0998 49.3134 100.706 48.8245 101.929 48.126V51.3041C100.462 52.0026 98.7855 52.3518 96.8646 52.3518C92.7784 52.3518 88.5875 49.8722 88.5875 44.389C88.5526 38.6265 92.9531 36.1469 97.0392 36.1469Z" fill="black"/>
<path d="M119.426 49.4881C119.775 49.4881 120.124 49.3834 120.439 49.3135V51.7582C119.81 52.0027 119.042 52.1424 118.273 52.1424C116.876 52.1424 115.759 51.5836 115.2 50.3612C113.698 51.5836 111.812 52.3519 109.402 52.3519C106.608 52.3519 104.024 50.8153 104.024 47.6371C104.024 43.6907 107.656 42.5032 110.869 42.5032C112.196 42.5032 113.663 42.6778 114.851 42.9572V42.3985C114.851 40.4776 113.454 39.1505 110.834 39.1505C108.564 39.1505 106.678 39.7093 105.316 40.3379V37.1947C106.539 36.7756 108.739 36.1819 111.184 36.1819C115.514 36.1819 118.273 38.2424 118.273 42.8874V48.3705C118.308 49.2087 118.832 49.4881 119.426 49.4881ZM107.586 47.3927C107.586 48.8944 108.913 49.6628 110.45 49.6628C112.092 49.6628 113.663 49.069 114.886 47.8467V45.2623C113.943 45.0876 112.65 44.8781 111.568 44.8781C109.612 44.8781 107.586 45.4718 107.586 47.3927Z" fill="black"/>
<path d="M138.425 29.5112V51.8979H135.352V49.4531C134.164 50.9549 132.348 52.282 129.484 52.282C124.839 52.282 121.871 48.615 121.871 44.1795C121.871 39.779 124.839 36.077 129.484 36.077C132.173 36.077 133.955 37.2645 135.002 38.4868V29.5112H138.425ZM130.078 39.1504C127.319 39.1504 125.328 41.2109 125.328 44.2494C125.328 47.2529 127.354 49.3134 130.078 49.3134C132.488 49.3134 134.234 47.7768 134.967 46.1004V42.3635C134.234 40.6871 132.488 39.1504 130.078 39.1504Z" fill="black"/>
<path d="M149.496 36.1469C155.608 36.1469 157.703 41.0712 156.725 45.5066H145.2C145.584 48.2657 148.273 49.4182 151.067 49.4182C152.918 49.4182 154.63 48.9642 155.922 48.3355V51.2692C154.525 51.9327 152.569 52.3169 150.439 52.3169C145.724 52.3169 141.742 49.6277 141.742 44.2144C141.742 38.6614 145.968 36.1469 149.496 36.1469ZM149.67 38.9757C147.365 38.9757 145.305 40.3378 145.165 42.9222H153.652C153.861 41.5951 153.023 38.9757 149.67 38.9757Z" fill="black"/>
<path d="M160.218 51.8978V36.5659H163.256V38.4868C164.094 37.5438 165.875 36.1469 168.355 36.1469C170.66 36.1469 172.267 37.0898 173.14 38.5916C174.467 37.2644 176.283 36.1469 178.518 36.1469C182.569 36.1469 184.351 39.1504 184.351 42.3285V51.9327H180.928V42.4333C180.928 40.4426 179.74 39.2202 177.889 39.2202C176.213 39.2202 174.886 40.3378 174.083 41.2808C174.118 41.63 174.153 41.9792 174.153 42.3285V51.9327H170.73V42.4333C170.73 40.4426 169.543 39.2202 167.692 39.2202C165.841 39.2202 164.444 40.5473 163.64 41.5951V51.9327H160.218V51.8978Z" fill="black"/>
<path d="M199.438 36.5659H203L195.806 53.9933C194.129 57.9747 191.964 59.3367 189.624 59.3367C188.961 59.3367 188.297 59.2319 187.598 59.0922V56.1935C188.122 56.3681 188.646 56.4031 189.17 56.4031C190.846 56.4031 192.069 55.2156 192.977 52.8408L193.291 52.0724L185.992 36.6008H189.624L194.793 48.1609L199.438 36.5659Z" fill="black"/>
<path d="M75.281 2.6543V11.3854C76.3986 10.2329 78.1448 9.28996 80.2403 9.28996C84.1169 9.28996 86.5616 11.9093 86.5616 15.5415V25.0409H83.139V15.9955C83.139 13.5158 81.6023 12.3284 79.5767 12.3284C77.6209 12.3284 76.1541 13.6555 75.281 14.8779V25.0409H71.8584V2.6543H75.281Z" fill="black"/>
<path d="M95.9213 4.22595V9.67418H101.474V12.6777H95.9213V19.6975C95.9213 21.7231 96.8642 22.3867 98.82 22.3867C99.9376 22.3867 100.95 22.1772 101.928 21.793V24.7267C100.776 25.1458 99.3089 25.3902 97.8072 25.3902C94.8386 25.3902 92.5336 23.9234 92.5336 20.3262V12.6428H89.7745V9.63926H92.5336V5.06414L95.9213 4.22595Z" fill="black"/>
<path d="M105.875 25.0409V9.70901H108.913V11.6299C109.752 10.6869 111.533 9.28992 114.012 9.28992C116.317 9.28992 117.924 10.2329 118.797 11.7346C120.124 10.4075 121.94 9.28992 124.175 9.28992C128.227 9.28992 130.008 12.2934 130.008 15.4716V25.0758H126.585V15.5414C126.585 13.5507 125.398 12.3284 123.547 12.3284C121.87 12.3284 120.543 13.4459 119.74 14.3889C119.775 14.7381 119.81 15.0874 119.81 15.4366V25.0409H116.387V15.5414C116.387 13.5507 115.2 12.3284 113.349 12.3284C111.498 12.3284 110.101 13.6555 109.298 14.7032V25.0409H105.875Z" fill="black"/>
<path d="M138.424 2.6543H135.002V25.0409H138.424V2.6543Z" fill="black"/>
<path d="M31.0665 0.0349245L30.7871 0L4 2.79396V51.8979L30.7871 67.8234L57.5742 51.8979V2.79396L31.0665 0.0349245ZM54.0818 49.9072L30.7871 63.7722L7.49245 49.9072V29.7906L30.6823 43.5858L30.7173 46.1004L14.8266 36.6358L14.7917 39.0806L30.7522 48.6848L30.7871 51.2343L14.8266 41.6999L14.7917 44.1446L30.7522 53.7489L46.8873 44.1097V41.665H46.8524V40.8268V39.814V33.7371L54.0469 29.4414V49.9072H54.0818ZM54.0469 26.822L47.6906 30.559L44.7569 32.3052L30.7173 23.9932L30.6823 26.4379L42.6615 33.5276L42.5567 33.5974L42.3122 33.7371L40.6009 34.7499L30.7173 28.8826L30.6823 31.3273L38.5054 35.9723L36.6544 37.1946L36.6195 37.2296L30.7173 33.7371L30.6823 36.1818L34.559 38.4519L30.6125 40.8268L7.5623 27.1014L30.6474 13.2015L54.0469 26.822ZM54.0818 24.4123L30.6823 10.6171L7.49245 24.3773V5.9721L30.7871 3.52738L54.0818 5.9721V24.4123Z" fill="black"/>
</g>
<defs>
<filter id="filter0_d" x="0" y="0" width="207" height="75.8234" filterUnits="userSpaceOnUse" color-interpolation-filters="sRGB">
<feFlood flood-opacity="0" result="BackgroundImageFix"/>
<feColorMatrix in="SourceAlpha" type="matrix" values="0 0 0 0 0 0 0 0 0 0 0 0 0 0 0 0 0 0 127 0"/>
<feOffset dy="4"/>
<feGaussianBlur stdDeviation="2"/>
<feColorMatrix type="matrix" values="0 0 0 0 0 0 0 0 0 0 0 0 0 0 0 0 0 0 0.25 0"/>
<feBlend mode="normal" in2="BackgroundImageFix" result="effect1_dropShadow"/>
<feBlend mode="normal" in="SourceGraphic" in2="effect1_dropShadow" result="shape"/>
</filter>
</defs>
</svg>
